# xmcd
#
# Track frame offsets: 
#        150
#        19839
#        40288
#        57268
#        71184
#        85126
#        99595
#        116458
#        133854
#        145389
#
# Disc length: 2089 seconds
#
# Revision: 0
# Processed by: cddbd v1.5.2PL0 Copyright (c) Steve Scherf et al.
# Submitted via: ExactAudioCopyFreeDBPlugin 1.0
#
DISCID=9008270a
DTITLE=Eric Brace and Peter Cooper - C&O Canal
DYEAR=2016
DGENRE=Country
TTITLE0=C&O Canal
TTITLE1=John Wilkes Booth
TTITLE2=Boulder To Birmingham
TTITLE3=Blue Ridge
TTITLE4=He Rode All The Way To Texas
TTITLE5=Rainy Night In Texas
TTITLE6=If That's The Way You Feel
TTITLE7=Been Awhile
TTITLE8=Love Was The Price
TTITLE9=Boat's Up The River
EXTD=
EXTT0=
EXTT1=
EXTT2=
EXTT3=
EXTT4=
EXTT5=
EXTT6=
EXTT7=
EXTT8=
EXTT9=
PLAYORDER=
